<svg width="21" height="24" viewBox="0 0 21 24" fill="none" xmlns="http://www.w3.org/2000/svg">
<g clip-path="url(#clip0)" filter="url(#filter0_d)">
<path d="M13 0.5H12.9187C12.639 0.502657 12.3681 0.598133 12.1486 0.771437C11.929 0.944741 11.7732 1.18606 11.7056 1.4575C11.6333 1.72177 11.4761 1.95495 11.2582 2.12116C11.0404 2.28737 10.774 2.3774 10.5 2.3774C10.226 2.3774 9.95959 2.28737 9.74176 2.12116C9.52392 1.95495 9.36673 1.72177 9.29437 1.4575C9.22681 1.18606 9.07101 0.944741 8.85144 0.771437C8.63187 0.598133 8.36096 0.502657 8.08125 0.5L8 0.5C7.1715 0.500992 6.37722 0.830551 5.79139 1.41639C5.20555 2.00222 4.87599 2.7965 4.875 3.625V13.625C4.875 14.1223 5.07254 14.5992 5.42417 14.9508C5.77581 15.3025 6.25272 15.5 6.75 15.5H8.08125C8.36096 15.4973 8.63187 15.4019 8.85144 15.2286C9.07101 15.0553 9.22681 14.8139 9.29437 14.5425C9.36673 14.2782 9.52392 14.045 9.74176 13.8788C9.95959 13.7126 10.226 13.6226 10.5 13.6226C10.774 13.6226 11.0404 13.7126 11.2582 13.8788C11.4761 14.045 11.6333 14.2782 11.7056 14.5425C11.7732 14.8139 11.929 15.0553 12.1486 15.2286C12.3681 15.4019 12.639 15.4973 12.9187 15.5H14.25C14.7473 15.5 15.2242 15.3025 15.5758 14.9508C15.9275 14.5992 16.125 14.1223 16.125 13.625V3.625C16.124 2.7965 15.7944 2.00222 15.2086 1.41639C14.6228 0.830551 13.8285 0.500992 13 0.5V0.5ZM14.25 14.25L12.9106 14.2106C12.7638 13.6803 12.4461 13.2132 12.0068 12.8817C11.5675 12.5503 11.0311 12.3731 10.4808 12.3776C9.93055 12.3821 9.39711 12.568 8.96326 12.9065C8.52941 13.2451 8.21938 13.7173 8.08125 14.25H6.75C6.58424 14.25 6.42527 14.1842 6.30806 14.0669C6.19085 13.9497 6.125 13.7908 6.125 13.625V11.125H7.375C7.54076 11.125 7.69973 11.0592 7.81694 10.9419C7.93415 10.8247 8 10.6658 8 10.5C8 10.3342 7.93415 10.1753 7.81694 10.0581C7.69973 9.94085 7.54076 9.875 7.375 9.875H6.125V3.625C6.125 3.12772 6.32254 2.65081 6.67417 2.29917C7.02581 1.94754 7.50272 1.75 8 1.75L8.08937 1.78937C8.23576 2.31652 8.55062 2.78128 8.98589 3.11272C9.42115 3.44416 9.95291 3.62408 10.5 3.625C11.0545 3.62028 11.5922 3.43456 12.0314 3.0961C12.4706 2.75764 12.7873 2.28497 12.9331 1.75H13C13.4973 1.75 13.9742 1.94754 14.3258 2.29917C14.6775 2.65081 14.875 3.12772 14.875 3.625V9.875H13.625C13.4592 9.875 13.3003 9.94085 13.1831 10.0581C13.0658 10.1753 13 10.3342 13 10.5C13 10.6658 13.0658 10.8247 13.1831 10.9419C13.3003 11.0592 13.4592 11.125 13.625 11.125H14.875V13.625C14.875 13.7908 14.8092 13.9497 14.6919 14.0669C14.5747 14.1842 14.4158 14.25 14.25 14.25Z" fill="white"/>
<path d="M11.125 9.875H9.875C9.70924 9.875 9.55027 9.94085 9.43306 10.0581C9.31585 10.1753 9.25 10.3342 9.25 10.5C9.25 10.6658 9.31585 10.8247 9.43306 10.9419C9.55027 11.0592 9.70924 11.125 9.875 11.125H11.125C11.2908 11.125 11.4497 11.0592 11.5669 10.9419C11.6842 10.8247 11.75 10.6658 11.75 10.5C11.75 10.3342 11.6842 10.1753 11.5669 10.0581C11.4497 9.94085 11.2908 9.875 11.125 9.875Z" fill="white"/>
</g>
<defs>
<filter id="filter0_d" x="-1" y="0.5" width="23" height="23" filterUnits="userSpaceOnUse" color-interpolation-filters="sRGB">
<feFlood flood-opacity="0" result="BackgroundImageFix"/>
<feColorMatrix in="SourceAlpha" type="matrix" values="0 0 0 0 0 0 0 0 0 0 0 0 0 0 0 0 0 0 127 0"/>
<feOffset dy="4"/>
<feGaussianBlur stdDeviation="2"/>
<feColorMatrix type="matrix" values="0 0 0 0 0 0 0 0 0 0 0 0 0 0 0 0 0 0 0.25 0"/>
<feBlend mode="normal" in2="BackgroundImageFix" result="effect1_dropShadow"/>
<feBlend mode="normal" in="SourceGraphic" in2="effect1_dropShadow" result="shape"/>
</filter>
<clipPath id="clip0">
<rect width="15" height="15" fill="white" transform="translate(3 0.5)"/>
</clipPath>
</defs>
</svg>
